<svg width="235" height="127" viewBox="0 0 235 127" fill="none" xmlns="http://www.w3.org/2000/svg">
<path d="M51.8109 28.4079V97.7566C51.8109 117.252 43.7626 127 27.666 127H24.4802C8.16008 127 0 117.252 0 97.7566V28.575C0 9.525 8.10419 0 24.3126 0H27.4983C36.2173 0 42.4212 2.45088 46.11 7.35264C49.9106 12.2544 51.8109 19.2728 51.8109 28.4079ZM32.5285 99.0934V27.5724C32.5285 21.2224 30.3488 18.0474 25.9893 18.0474C21.518 18.0474 19.2824 21.2224 19.2824 27.5724V99.0934C19.2824 105.443 21.5739 108.618 26.157 108.618C30.4047 108.618 32.5285 105.443 32.5285 99.0934Z" fill="#C10020"/>
<path d="M93.9453 70.8526V125.496H74.9982V1.16974H93.9453V50.9671H106.856V1.16974H125.803V125.496H106.856V70.8526H93.9453Z" fill="#C10020"/>
<path d="M164.825 125.496L162.31 102.101H148.393L146.046 125.496H129.111L144.369 1.16974H166.837L183.101 125.496H164.825ZM155.268 37.5987L150.405 83.5526H160.298L155.268 37.5987Z" fill="#C10020"/>
<path d="M216.388 100.263V71.354H235V100.096C235 118.032 227.455 127 212.364 127H208.172C192.635 127 184.866 118.255 184.866 100.764V24.8987C184.866 17.7689 186.654 11.8645 190.231 7.18553C193.808 2.39518 199.565 0 207.502 0H211.861C216.78 0 220.86 0.724123 224.101 2.17237C227.455 3.62062 229.858 5.73728 231.311 8.52237C232.764 11.3075 233.715 14.0368 234.162 16.7105C234.721 19.2728 235 22.3364 235 25.9013V48.1263H216.388V26.2355C216.388 20.7768 214.264 18.0474 210.017 18.0474C207.781 18.0474 206.216 18.7158 205.322 20.0526C204.539 21.2781 204.148 23.339 204.148 26.2355V100.096C204.148 105.778 206.16 108.618 210.184 108.618C214.32 108.618 216.388 105.833 216.388 100.263Z" fill="#C10020"/>
</svg>
