<svg width="359" height="127" viewBox="0 0 359 127" fill="none" xmlns="http://www.w3.org/2000/svg">
<path d="M35.6553 125.496L33.1444 102.101H19.2505L16.907 125.496H0L15.233 1.16974H37.6641L53.9015 125.496H35.6553ZM26.1138 37.5987L21.2593 83.5526H31.1356L26.1138 37.5987Z" fill="#FFD700"/>
<path d="M75.5635 70.8526V125.496H56.6478V1.16974H75.5635V50.9671H88.453V1.16974H107.369V125.496H88.453V70.8526H75.5635Z" fill="#FFD700"/>
<path d="M165.912 28.4079V97.7566C165.912 117.252 157.877 127 141.807 127H138.626C122.333 127 114.186 117.252 114.186 97.7566V28.575C114.186 9.525 122.277 0 138.459 0H141.639C150.344 0 156.537 2.45088 160.22 7.35264C164.014 12.2544 165.912 19.2728 165.912 28.4079ZM146.661 99.0934V27.5724C146.661 21.2224 144.485 18.0474 140.133 18.0474C135.669 18.0474 133.437 21.2224 133.437 27.5724V99.0934C133.437 105.443 135.724 108.618 140.3 108.618C144.541 108.618 146.661 105.443 146.661 99.0934Z" fill="#FFD700"/>
<path d="M190.975 70.8526V125.496H172.059V1.16974H190.975V50.9671H203.865V1.16974H222.78V125.496H203.865V70.8526H190.975Z" fill="#FFD700"/>
<path d="M261.068 100.263V71.354H279.649V100.096C279.649 118.032 272.116 127 257.051 127H252.866C237.354 127 229.598 118.255 229.598 100.764V24.8987C229.598 17.7689 231.383 11.8645 234.954 7.18553C238.526 2.39518 244.273 0 252.196 0H256.549C261.459 0 265.532 0.724123 268.768 2.17237C272.116 3.62062 274.516 5.73728 275.966 8.52237C277.417 11.3075 278.366 14.0368 278.812 16.7105C279.37 19.2728 279.649 22.3364 279.649 25.9013V48.1263H261.068V26.2355C261.068 20.7768 258.948 18.0474 254.707 18.0474C252.475 18.0474 250.913 18.7158 250.02 20.0526C249.239 21.2781 248.848 23.339 248.848 26.2355V100.096C248.848 105.778 250.857 108.618 254.875 108.618C259.004 108.618 261.068 105.833 261.068 100.263Z" fill="#FFD700"/>
<path d="M304.262 49.2961H315.31C328.255 49.2961 334.728 56.9272 334.728 72.1895V103.772C334.728 111.236 333.165 116.751 330.041 120.316C326.916 123.769 322.006 125.496 315.31 125.496H285.346V1.16974H304.262V49.2961ZM304.262 107.449H309.116C311.683 107.449 313.413 106.725 314.305 105.276C315.198 103.828 315.644 101.711 315.644 98.9263V76.3671C315.644 73.3592 315.198 71.1311 314.305 69.6829C313.524 68.1232 311.794 67.3434 309.116 67.3434H304.262V107.449ZM359 1.16974V125.496H340.084V1.16974H359Z" fill="#FFD700"/>
</svg>
