<svg width="514" height="136" viewBox="0 0 514 136" fill="none" xmlns="http://www.w3.org/2000/svg">
<path d="M33.8153 107.368V76.4105H53.7807V107.189C53.7807 126.396 45.6866 136 29.4985 136H25.0017C8.33391 136 0 126.635 0 107.905V26.6632C0 19.0281 1.9186 12.7053 5.7558 7.69474C9.593 2.56491 15.7685 0 24.2823 0H28.9589C34.235 0 38.6118 0.775439 42.0893 2.32632C45.6866 3.8772 48.2648 6.14386 49.8236 9.12632C51.3825 12.1088 52.4017 15.0316 52.8814 17.8947C53.4809 20.6386 53.7807 23.9193 53.7807 27.7368V51.5368H33.8153V28.0947C33.8153 22.2491 31.537 19.3263 26.9803 19.3263C24.5821 19.3263 22.9033 20.0421 21.944 21.4737C21.1046 22.786 20.6849 24.993 20.6849 28.0947V107.189C20.6849 113.274 22.8433 116.316 27.1602 116.316C31.5969 116.316 33.8153 113.333 33.8153 107.368Z" fill="#E7E7E7"/>
<path d="M57.7435 1.25264H112.064V20.5789H94.9763V134.389H74.831V20.5789H57.7435V1.25264Z" fill="#E7E7E7"/>
<path d="M149.37 79.0947H137.498V134.389H117.173V1.25264H149.37C156.684 1.25264 161.96 2.98246 165.198 6.44211C168.556 9.78246 170.234 15.3895 170.234 23.2632V54.7579C170.234 70.9825 163.28 79.0947 149.37 79.0947ZM137.498 19.3263V59.9474H142.715C145.592 59.9474 147.451 59.1719 148.29 57.6211C149.25 55.9509 149.729 53.5053 149.729 50.2842V28.4526C149.729 25.4702 149.25 23.2035 148.29 21.6526C147.331 20.1018 145.473 19.3263 142.715 19.3263H137.498Z" fill="#E7E7E7"/>
<path d="M226.372 1.25264L206.946 116.853C205.867 123.414 204.188 128.007 201.91 130.632C199.631 133.137 195.914 134.389 190.758 134.389H177.627V113.811H182.304C183.383 113.811 184.223 113.632 184.822 113.274C185.542 112.916 186.021 112.439 186.261 111.842C186.501 111.246 186.741 110.47 186.98 109.516L187.52 105.4C187.88 103.253 187.64 99.6737 186.801 94.6632L171.692 1.25264H192.377L199.931 60.1263L207.126 1.25264H226.372Z" fill="#E7E7E7"/>
<path d="M266.815 134.389L249.908 76.5895V134.389H229.583V1.25264H249.908V54.5789L265.916 1.25264H285.702L266.815 63.1684L287.68 134.389H266.815Z" fill="#E7E7E7"/>
<path d="M288.2 1.25264H342.521V20.5789H325.433V134.389H305.288V20.5789H288.2V1.25264Z" fill="#E7E7E7"/>
<path d="M397.633 1.25264L378.208 116.853C377.128 123.414 375.45 128.007 373.171 130.632C370.893 133.137 367.176 134.389 362.019 134.389H348.889V113.811H353.566C354.645 113.811 355.484 113.632 356.084 113.274C356.803 112.916 357.283 112.439 357.523 111.842C357.763 111.246 358.002 110.47 358.242 109.516L358.782 105.4C359.142 103.253 358.902 99.6737 358.062 94.6632L342.953 1.25264H363.638L371.193 60.1263L378.387 1.25264H397.633Z" fill="#E7E7E7"/>
<path d="M433.401 79.0947H421.529V134.389H401.204V1.25264H433.401C440.715 1.25264 445.991 2.98246 449.229 6.44211C452.587 9.78246 454.265 15.3895 454.265 23.2632V54.7579C454.265 70.9825 447.31 79.0947 433.401 79.0947ZM421.529 19.3263V59.9474H426.745C429.623 59.9474 431.482 59.1719 432.321 57.6211C433.281 55.9509 433.76 53.5053 433.76 50.2842V28.4526C433.76 25.4702 433.281 23.2035 432.321 21.6526C431.362 20.1018 429.503 19.3263 426.745 19.3263H421.529Z" fill="#E7E7E7"/>
<path d="M494.394 134.389L491.696 109.337H476.767L474.249 134.389H456.082L472.45 1.25264H496.553L514 134.389H494.394ZM484.142 40.2632L478.926 89.4737H489.538L484.142 40.2632Z" fill="#E7E7E7"/>
</svg>
